<svg xmlns="http://www.w3.org/2000/svg" width="1200" height="360" viewBox="0 0 1200 360">
  <defs>
    <linearGradient id="bg" x1="0" y1="0" x2="1" y2="1">
      <stop offset="0" stop-color="#0D1B33"/>
      <stop offset="1" stop-color="#1D3560"/>
    </linearGradient>
    <linearGradient id="accent" x1="0" y1="0" x2="1" y2="0">
      <stop offset="0" stop-color="#86D4C9"/>
      <stop offset="1" stop-color="#3A8FD9"/>
    </linearGradient>
  </defs>
  <rect width="1200" height="360" rx="28" fill="url(#bg)"/>
  <g stroke="#FFFFFF" stroke-opacity="0.05" stroke-width="2" fill="none">
    <path d="M0,250 C200,220 400,280 600,250 S1000,220 1200,250"/>
    <path d="M0,290 C200,260 400,320 600,290 S1000,260 1200,290"/>
    <path d="M0,210 C200,180 400,240 600,210 S1000,180 1200,210"/>
  </g>
  <!-- App icon: sun behind a cloud on navy -->
  <g transform="translate(90,80)">
    <rect width="200" height="200" rx="52" fill="#21407A"/>
    <g transform="scale(2.7778) translate(-18,-18)">
      <path d="M43.00,32.50 L43.00,28.50" fill="none" stroke="#FFFFFF" stroke-width="4.2" stroke-linecap="round"/><path d="M33.45,36.45 L30.63,33.63" fill="none" stroke="#FFFFFF" stroke-width="4.2" stroke-linecap="round"/><path d="M52.55,36.45 L55.37,33.63" fill="none" stroke="#FFFFFF" stroke-width="4.2" stroke-linecap="round"/><path d="M29.50,46.00 L25.50,46.00" fill="none" stroke="#FFFFFF" stroke-width="4.2" stroke-linecap="round"/><path d="M33.45,55.55 L30.63,58.37" fill="none" stroke="#FFFFFF" stroke-width="4.2" stroke-linecap="round"/><path d="M34.50,46.00 a8.5,8.5 0 1,0 17.0,0 a8.5,8.5 0 1,0 -17.0,0 Z" fill="#FFFFFF"/><path d="M44.5,62 H71.5 A8.5,8.5 0 0 1 80,70.5 V70.5 A8.5,8.5 0 0 1 71.5,79 H44.5 A8.5,8.5 0 0 1 36,70.5 V70.5 A8.5,8.5 0 0 1 44.5,62 Z" fill="#21407A" stroke="#21407A" stroke-width="5"/><path d="M47.50,57.50 a12.5,12.5 0 1,0 25.0,0 a12.5,12.5 0 1,0 -25.0,0 Z" fill="#21407A" stroke="#21407A" stroke-width="5"/><path d="M37.50,63.50 a9,9 0 1,0 18,0 a9,9 0 1,0 -18,0 Z" fill="#21407A" stroke="#21407A" stroke-width="5"/><path d="M44.5,62 H71.5 A8.5,8.5 0 0 1 80,70.5 V70.5 A8.5,8.5 0 0 1 71.5,79 H44.5 A8.5,8.5 0 0 1 36,70.5 V70.5 A8.5,8.5 0 0 1 44.5,62 Z" fill="#FFFFFF"/><path d="M47.50,57.50 a12.5,12.5 0 1,0 25.0,0 a12.5,12.5 0 1,0 -25.0,0 Z" fill="#FFFFFF"/><path d="M37.50,63.50 a9,9 0 1,0 18,0 a9,9 0 1,0 -18,0 Z" fill="#FFFFFF"/>
    </g>
  </g>
  <text x="340" y="170" font-family="Segoe UI, Roboto, Helvetica, Arial, sans-serif" font-size="92" font-weight="800" fill="#FFFFFF" letter-spacing="-2">Sky Dark</text>
  <rect x="344" y="192" width="120" height="6" rx="3" fill="url(#accent)"/>
  <text x="344" y="244" font-family="Segoe UI, Roboto, Helvetica, Arial, sans-serif" font-size="30" fill="#C9D6EA">The forecast at a glance, down to the next few hours.</text>
  <text x="344" y="290" font-family="Segoe UI, Roboto, Helvetica, Arial, sans-serif" font-size="22" font-weight="600" fill="#7FA6D6" letter-spacing="3">RAIN OUTLOOK  •  24-HOUR TIMELINE  •  7-DAY  •  RADAR</text>
</svg>
